<?xml version="1.0" encoding="UTF-8" standalone="no"?>
<svg
   id="Capa_2"
   data-name="Capa 2"
   viewBox="0 0 143.32 46.72"
   version="1.1"
   sodipodi:docname="4m3bio_logo_white.svg"
   inkscape:version="1.4 (e7c3feb1, 2024-10-09)"
   xmlns:inkscape="http://www.inkscape.org/namespaces/inkscape"
   xmlns:sodipodi="http://sodipodi.sourceforge.net/DTD/sodipodi-0.dtd"
   xmlns="http://www.w3.org/2000/svg"
   xmlns:svg="http://www.w3.org/2000/svg">
  <sodipodi:namedview
     id="namedview11"
     pagecolor="#ffffff"
     bordercolor="#000000"
     borderopacity="0.25"
     inkscape:showpageshadow="2"
     inkscape:pageopacity="0.0"
     inkscape:pagecheckerboard="0"
     inkscape:deskcolor="#d1d1d1"
     inkscape:zoom="1.1756478"
     inkscape:cx="114.83031"
     inkscape:cy="62.944021"
     inkscape:window-width="1112"
     inkscape:window-height="543"
     inkscape:window-x="0"
     inkscape:window-y="25"
     inkscape:window-maximized="0"
     inkscape:current-layer="g11" />
  <defs
     id="defs1">
    <style
       id="style1">
      .cls-1 {
        fill: #56544e;
        font-family: CircularStd-Book, 'Circular Std';
        font-size: 27.37px;
      }

      .cls-2 {
        fill: none;
        stroke: #56544e;
        stroke-linecap: round;
        stroke-linejoin: round;
        stroke-width: 1.68px;
      }
    </style>
  </defs>
  <g
     id="Capa_1-2"
     data-name="Capa 1">
    <g
       id="g11"
       transform="translate(34.87439,-112.27852)">
      <g
         id="g7"
         style="fill:#ffffff"
         transform="translate(-34.023795,112.27852)">
        <path
           d="M 0.95795003,-3.9960201 V -7.0888302 L 8.5668103,-17.735761 H 12.26176 v 11.2490708 h 3.03807 v 2.4906701 H 12.26176 V 0 H 9.6616103 V -3.9960201 Z M 9.6616103,-6.4866902 V -15.16298 l -6.2403602,8.6762898 z"
           id="text1"
           style="font-size:27.37px;font-family:CircularStd-Book, 'Circular Std';fill:#ffffff"
           class="cls-1"
           transform="translate(48.6,31.88)"
           aria-label="4" />
        <path
           d="m 4.7350101,0 h -2.54541 v -13.16497 h 2.4633 v 1.75168 q 0.6021401,-1.04006 1.6969401,-1.58746 1.0948,-0.5474 2.2990801,-0.5474 1.28639,0 2.3538197,0.62951 1.06743,0.62951 1.58746,1.86116 1.3685,-2.49067 4.406571,-2.49067 1.88853,0 3.20229,1.28639 1.34113,1.28639 1.34113,3.7223197 V 0 h -2.54541 v -8.2657403 q 0,-1.3685 -0.71162,-2.1895997 -0.68425,-0.8211 -2.080121,-0.8211 -1.34113,0 -2.1896,0.95795 -0.84847,0.9305797 -0.84847,2.3538198 V 0 h -2.57278 v -8.2657403 q 0,-1.3685 -0.7116197,-2.1895997 -0.68425,-0.8211 -2.0801201,-0.8211 -1.3685,0 -2.21697,0.93058 -0.8484701,0.9305797 -0.8484701,2.4085598 z"
           id="text2"
           style="font-size:27.37px;font-family:CircularStd-Book, 'Circular Std';fill:#ffffff"
           class="cls-1"
           transform="translate(63.76,31.88)"
           aria-label="m" />
        <path
           d="M 6.1582502,-8.2383703 4.8444901,-10.45534 10.07216,-15.27246 h -8.4847 v -2.463301 h 12.0428 v 2.408561 l -5.0634497,4.68027 q 2.1622297,0 3.8044297,1.4232397 1.66957,1.4232401 1.66957,3.9686501 0,2.3538201 -1.72431,4.0233902 -1.72431,1.66957001 -4.7076398,1.66957001 -2.9285901,0 -4.7076401,-1.61483001 Q 1.14954,-2.8191101 1.01269,-5.1455602 l 2.6275201,-0.60214 q 0.08211,1.7243101 1.17691,2.7917401 1.1221701,1.04006 2.7643701,1.04006 1.7516801,0 2.7369998,-0.93058 1.01269,-0.95795 1.01269,-2.3538201 0,-1.61483 -1.06743,-2.4633 -1.0674297,-0.8484701 -2.5454098,-0.8484701 -0.79373,0 -1.56009,0.2737 z"
           id="text3"
           style="font-size:27.37px;font-family:CircularStd-Book, 'Circular Std';fill:#ffffff"
           class="cls-1"
           transform="translate(86.12,31.88)"
           aria-label="3" />
        <path
           d="m 2.4633001,-0.41055001 q -0.5474,-0.54740002 -0.5474,-1.34113009 0,-0.79373 0.5474,-1.34113 0.5474,-0.57477 1.34113,-0.57477 0.79373,0 1.3411301,0.57477 0.57477,0.5474 0.57477,1.34113 0,0.79373007 -0.57477,1.34113009 Q 4.5981601,0.13685 3.8044301,0.13685 q -0.79373,0 -1.34113,-0.54740001 z"
           id="text4"
           style="font-size:27.37px;font-family:CircularStd-Book, 'Circular Std';fill:#ffffff"
           class="cls-1"
           transform="translate(100.16,31.88)"
           aria-label="." />
        <path
           d="m 4.7350101,0 h -2.54541 v -19.815881 h 2.54541 v 8.512071 q 0.5200301,-0.95795 1.6422001,-1.58746 1.14954,-0.65688 2.7096301,-0.65688 2.8738497,0 4.4613097,1.94327 1.58746,1.9432697 1.58746,4.9539698 0,3.0380701 -1.6422,5.0360802 -1.6422,1.97064001 -4.4886797,1.97064001 -2.9559601,0 -4.2697202,-2.27171011 z M 11.44066,-3.2296601 q 1.06743,-1.28639 1.06743,-3.4212501 0,-2.1348601 -1.06743,-3.3665098 -1.04006,-1.25902 -2.8191097,-1.25902 -1.7243101,0 -2.8191101,1.25902 -1.0948001,1.2590197 -1.0948001,3.3665098 0,2.1074901 1.0948001,3.4212501 1.0948,1.28639 2.8191101,1.28639 1.7516797,0 2.8191097,-1.28639 z"
           id="text5"
           style="font-size:27.37px;font-family:CircularStd-Book, 'Circular Std';fill:#ffffff"
           class="cls-1"
           transform="translate(106.7,31.88)"
           aria-label="b" />
        <path
           d="m 4.7350101,0 h -2.54541 v -13.16497 h 2.54541 z m -2.60015,-16.832551 q -0.5200301,-0.5474 -0.5200301,-1.31376 0,-0.76636 0.5200301,-1.31376 0.5474,-0.5474 1.31376,-0.5474 0.76636,0 1.31376,0.5474 0.5474001,0.52003 0.5474001,1.31376 0,0.76636 -0.5474001,1.31376 -0.5474,0.52003 -1.31376,0.52003 -0.76636,0 -1.31376,-0.52003 z"
           id="text6"
           style="font-size:27.37px;font-family:CircularStd-Book, 'Circular Std';fill:#ffffff"
           class="cls-1"
           transform="translate(121.84,31.88)"
           aria-label="i" />
        <path
           d="m 4.8992302,-3.1201801 q 1.20428,1.23165 2.92859,1.23165 1.7243101,0 2.9012198,-1.23165 1.20428,-1.25902 1.20428,-3.4759901 0,-2.1896001 -1.20428,-3.4212498 -1.1769097,-1.25902 -2.9012198,-1.25902 -1.72431,0 -2.92859,1.25902 -1.1769101,1.2316497 -1.1769101,3.4212498 0,2.2169701 1.1769101,3.4759901 z M 2.9833301,-11.57751 q 1.9159001,-1.99801 4.8444901,-1.99801 2.9285898,0 4.8171198,1.99801 1.9159,1.9706397 1.9159,4.9813398 0,3.0380701 -1.88853,5.0360802 -1.88853,1.97064001 -4.8444898,1.97064001 -2.9559601,0 -4.8444901,-1.97064001 Q 1.0948,-3.5581001 1.0948,-6.5961702 q 0,-3.0107001 1.8885301,-4.9813398 z"
           id="text7"
           style="font-size:27.37px;font-family:CircularStd-Book, 'Circular Std';fill:#ffffff"
           class="cls-1"
           transform="translate(127.66,31.88)"
           aria-label="o" />
      </g>
      <g
         id="g10"
         style="fill:none"
         transform="translate(-34.023795,112.27852)">
        <g
           id="LINE"
           style="fill:none">
          <line
             class="cls-2"
             x1="20.34"
             y1="23.360001"
             x2="20.34"
             y2="45.880001"
             id="line7"
             style="fill:none;stroke:#ffffff" />
        </g>
        <g
           id="LINE-2"
           data-name="LINE"
           style="fill:none">
          <line
             class="cls-2"
             x1="20.34"
             y1="23.360001"
             x2="39.84"
             y2="12.1"
             id="line8"
             style="fill:none;stroke:#ffffff" />
        </g>
        <g
           id="LINE-3"
           data-name="LINE"
           style="fill:none">
          <line
             class="cls-2"
             x1="30.540001"
             y1="28.73"
             x2="39.84"
             y2="23.360001"
             id="line9"
             style="fill:none;stroke:#ffffff" />
        </g>
        <g
           id="LINE-4"
           data-name="LINE"
           style="fill:none">
          <line
             class="cls-2"
             x1="20.34"
             y1="23.360001"
             x2="0.83999997"
             y2="12.1"
             id="line10"
             style="fill:#ffffff;stroke:#ffffff" />
        </g>
        <g
           id="LINE-5"
           data-name="LINE"
           style="fill:none">
          <polygon
             class="cls-2"
             points="39.84,12.1 20.34,0.84 0.84,12.1 0.84,34.62 20.34,45.88 39.84,34.62 "
             id="polygon10"
             style="fill:none;stroke:#ffffff" />
        </g>
        <g
           id="LINE-6"
           data-name="LINE"
           style="fill:none">
          <polyline
             class="cls-2"
             points="10.59 17.73 10.59 28.99 20.34 34.62"
             id="polyline10"
             style="fill:none;stroke:#ffffff" />
        </g>
      </g>
    </g>
  </g>
</svg>
