<?xml version="1.0" encoding="UTF-8"?>
<svg id="Capa_2" data-name="Capa 2" xmlns="http://www.w3.org/2000/svg" viewBox="0 0 143.32 46.72">
  <defs>
    <style>
      .cls-1 {
        fill: #56544e;
        font-family: CircularStd-Book, 'Circular Std';
        font-size: 27.37px;
      }

      .cls-2 {
        fill: none;
        stroke: #56544e;
        stroke-linecap: round;
        stroke-linejoin: round;
        stroke-width: 1.68px;
      }
    </style>
  </defs>
  <g id="Capa_1-2" data-name="Capa 1">
    <g>
      <g>
        <text class="cls-1" transform="translate(48.6 31.88)"><tspan x="0" y="0">4</tspan></text>
        <text class="cls-1" transform="translate(63.76 31.88)"><tspan x="0" y="0">m</tspan></text>
        <text class="cls-1" transform="translate(86.12 31.88)"><tspan x="0" y="0">3</tspan></text>
        <text class="cls-1" transform="translate(100.16 31.88)"><tspan x="0" y="0">.</tspan></text>
        <text class="cls-1" transform="translate(106.7 31.88)"><tspan x="0" y="0">b</tspan></text>
        <text class="cls-1" transform="translate(121.84 31.88)"><tspan x="0" y="0">i</tspan></text>
        <text class="cls-1" transform="translate(127.66 31.88)"><tspan x="0" y="0">o</tspan></text>
      </g>
      <g>
        <g id="LINE">
          <line class="cls-2" x1="20.34" y1="23.36" x2="20.34" y2="45.88"/>
        </g>
        <g id="LINE-2" data-name="LINE">
          <line class="cls-2" x1="20.34" y1="23.36" x2="39.84" y2="12.1"/>
        </g>
        <g id="LINE-3" data-name="LINE">
          <line class="cls-2" x1="30.54" y1="28.73" x2="39.84" y2="23.36"/>
        </g>
        <g id="LINE-4" data-name="LINE">
          <line class="cls-2" x1="20.34" y1="23.36" x2=".84" y2="12.1"/>
        </g>
        <g id="LINE-5" data-name="LINE">
          <polygon class="cls-2" points="20.34 .84 .84 12.1 .84 34.62 20.34 45.88 39.84 34.62 39.84 12.1 20.34 .84"/>
        </g>
        <g id="LINE-6" data-name="LINE">
          <polyline class="cls-2" points="10.59 17.73 10.59 28.99 20.34 34.62"/>
        </g>
      </g>
    </g>
  </g>
</svg>